<svg id="Layer_1" data-name="Layer 1" xmlns="http://www.w3.org/2000/svg" xmlns:xlink="http://www.w3.org/1999/xlink" viewBox="0 0 663.04 488.24"><defs><style>.cls-1,.cls-4{fill:none;}.cls-2{clip-path:url(#clip-path);}.cls-3{fill:#fff;}.cls-4{stroke:#fff;stroke-linecap:round;stroke-miterlimit:10;stroke-width:3px;}</style><clipPath id="clip-path" transform="translate(90 0)"><circle class="cls-1" cx="241.1" cy="244.34" r="241.1"/></clipPath></defs><g class="cls-2"><image width="4673" height="3441" transform="translate(0 0) scale(0.14)" xlink:href="../../../../../../InDesign/Quest%20Book/quest-book/Links/dirty-metal-texture.jpg"/></g><path class="cls-3" d="M236.21,23.91V22.72l.71-.1L240.08,14h2l3.14,8.66.71.1v1.19h-3.39V22.72l.69-.13-.43-1.36h-3.5l-.44,1.36.69.13v1.19Zm3.61-4.15h2.56l-1.17-3.41-.09-.3h0l-.11.32Z" transform="translate(90 0)"/><path class="cls-3" d="M204.22,26.7l.23,1.18-4,.78-.23-1.18,1-.39-.44-2.31-1.29.25-.51,2.3a3.27,3.27,0,0,1-.66,1.36,2,2,0,0,1-1.17.67,3,3,0,0,1-.65,0,1.84,1.84,0,0,1-.58-.15l0-1.52a1.53,1.53,0,0,0,.48,0,1,1,0,0,0,.5-.27,2.16,2.16,0,0,0,.38-.71l.44-1.74v0a3.37,3.37,0,0,1-1.72-.74,2.74,2.74,0,0,1-.82-1.58,2.74,2.74,0,0,1,.52-2.41A4.12,4.12,0,0,1,198.13,19l4.43-.86.22,1.18-1,.41,1.36,7Zm-5.8-6.23a1.73,1.73,0,0,0-1.15.64,1.88,1.88,0,0,0,.46,2.34,1.71,1.71,0,0,0,1.3.18l1.43-.28-.61-3.16Z" transform="translate(90 0)"/><path class="cls-3" d="M162.55,40.59a4.22,4.22,0,0,1-2.19.31,4.26,4.26,0,0,1-2-.78,5.28,5.28,0,0,1-1.51-1.72l-.92.37,1,2.41L158,41l.44,1.11-3.82,1.54-.45-1.11.92-.59-2.67-6.63-1.06.21-.45-1.12,3.82-1.53.45,1.11-.91.59,1.12,2.79.88-.35a5.66,5.66,0,0,1-.25-2.45,4.37,4.37,0,0,1,.85-2.07,4.19,4.19,0,0,1,1.85-1.37,4.27,4.27,0,0,1,2.44-.28,4.36,4.36,0,0,1,2.15,1.08,5.62,5.62,0,0,1,1.5,2.19l.05.14a5.6,5.6,0,0,1,.44,2.62,4.43,4.43,0,0,1-.8,2.26A4.31,4.31,0,0,1,162.55,40.59ZM162,39.16a2.3,2.3,0,0,0,1.14-.94,2.62,2.62,0,0,0,.33-1.45A5.42,5.42,0,0,0,163,35l-.06-.15a5.14,5.14,0,0,0-1-1.58,2.65,2.65,0,0,0-1.24-.82,2.23,2.23,0,0,0-1.47.12,2.28,2.28,0,0,0-1.13.92,2.6,2.6,0,0,0-.31,1.44,5.31,5.31,0,0,0,.42,1.79l.06.16a5.62,5.62,0,0,0,.94,1.59,2.6,2.6,0,0,0,1.24.83A2.23,2.23,0,0,0,162,39.16Z" transform="translate(90 0)"/><path class="cls-3" d="M124.29,61.06a5.18,5.18,0,0,1-2,.79,4.31,4.31,0,0,1-1.9-.1l-1.06-1.65,1.24-.81.89,1a1.75,1.75,0,0,0,.88,0,3.45,3.45,0,0,0,1-.45,2.36,2.36,0,0,0,.89-1,2.48,2.48,0,0,0,.2-1.28,3.84,3.84,0,0,0-.48-1.43l0,0L121,58l-.84-1.3,2.93-1.88v0a3.94,3.94,0,0,0-1.12-1,2.3,2.3,0,0,0-1.25-.35,2.34,2.34,0,0,0-1.28.42,2.89,2.89,0,0,0-.81.72,1.87,1.87,0,0,0-.36.79l.54,1.22-1.25.8-1.07-1.65a4.76,4.76,0,0,1,.37-1.2,4.57,4.57,0,0,1,.74-1.11,5.47,5.47,0,0,1,1.12-.94,4.29,4.29,0,0,1,2.3-.74,4.34,4.34,0,0,1,2.27.62,5.81,5.81,0,0,1,1.87,1.86l.18.29a5.54,5.54,0,0,1,.91,2.46,4.2,4.2,0,0,1-2,4.11Z" transform="translate(90 0)"/><path class="cls-3" d="M89.63,89.78l-.83-.87.63-.88-5-5.16-.91.59-.83-.87,3-2.86.83.87-.62.89,1.57,1.64L88.74,82a4.7,4.7,0,0,1,1.7-1.1,3,3,0,0,1,1.68-.12,3,3,0,0,1,1.46.87,3.08,3.08,0,0,1,.82,1.52,3,3,0,0,1-.17,1.7,4.7,4.7,0,0,1-1.16,1.66Zm1.15-3.23L92,85.37a1.7,1.7,0,0,0,.61-1.24A1.62,1.62,0,0,0,92.13,83a1.47,1.47,0,0,0-1.1-.5,1.86,1.86,0,0,0-1.23.59l-1.23,1.18Z" transform="translate(90 0)"/><path class="cls-3" d="M62.7,123.89l-1-.69.45-1-5.83-4.12-.78.75-1-.69L57,114.77l1,.7-.45,1,1.86,1.31,1-1.39A4.73,4.73,0,0,1,61.8,115a2.86,2.86,0,0,1,3.23.14,3.1,3.1,0,0,1,1.09,1.34,3,3,0,0,1,.16,1.7,4.69,4.69,0,0,1-.82,1.85ZM67.62,117l-1-.69.44-1-5.83-4.12-.78.74-1-.69,2.38-3.36,1,.69-.44,1,5.83,4.12.78-.74,1,.69Zm-4.4,3.56,1-1.4a1.73,1.73,0,0,0,.36-1.33,1.66,1.66,0,0,0-.7-1,1.49,1.49,0,0,0-1.17-.27,1.83,1.83,0,0,0-1.11.81l-1,1.39Z" transform="translate(90 0)"/><path class="cls-3" d="M45.42,157.32l-1.09-.5.25-1-6.39-2.89-1,2.3.86.47L37.38,157l-2.3-1,3-6.54,1.1.5-.25,1,2.08.93.7-1.55a4.73,4.73,0,0,1,1.17-1.66,3,3,0,0,1,1.51-.73,2.87,2.87,0,0,1,1.68.26,3,3,0,0,1,1.33,1.1,3,3,0,0,1,.48,1.64,4.66,4.66,0,0,1-.46,2Zm-.14-3.42.71-1.56a1.75,1.75,0,0,0,.1-1.37,1.65,1.65,0,0,0-.89-.91A1.52,1.52,0,0,0,44,150a1.83,1.83,0,0,0-.93,1l-.7,1.56Z" transform="translate(90 0)"/><path class="cls-3" d="M37.45,189.78l-2.33-.55-2.77,11.62-1.16-.27,0-1.09-6.95-1.65-.45,1-1.17-.28,1-4,1.16.28,0,1.07,6.82,1.63.65-2.74-6.82-1.63-.44,1-1.18-.27,1-4,1.17.28-.05,1.08,6.83,1.62.64-2.71-6.82-1.62-.45,1-1.17-.28,1-4,1.17.28L27,186.57l6.82,1.63.3-1.25,3.79,1Z" transform="translate(90 0)"/><path class="cls-3" d="M28.77,241.94l-1.2-.05-.16-1.08-7.14-.3L20,241.56l-1.2-.05.13-3.06.05-1.06,1.2.06.16,1.06,7,.3.12-2.81-7-.3-.25,1.06L19,236.7l.17-4.11,1.21,0,.15,1.07,7,.3.12-2.78-7-.31L20.43,232l-1.2,0,.05-1.07.08-2,.05-1.07,1.2.05.16,1.08,7.14.3.25-1.05,1.19.05Z" transform="translate(90 0)"/><path class="cls-3" d="M31.93,275.45l-1.18.17-.36-1L28,275a8.73,8.73,0,0,1,.53,2,4.48,4.48,0,0,1-.37,2.92,3,3,0,0,1-2.28,1.36l-1.67.25-.05,1.08-1.19.18-.6-4.08,1.19-.18.36,1,1.67-.25a1.72,1.72,0,0,0,1.26-.63,2.17,2.17,0,0,0,.15-1.45,7.55,7.55,0,0,0-.2-1,9.18,9.18,0,0,0-.32-1l-3.13.47,0,1.08-1.19.17-.61-4.07,1.19-.18.36,1,7.07-1.05,0-1.09,1.19-.17Z" transform="translate(90 0)"/><path class="cls-3" d="M43.88,312.16l-2.26.8L44.46,321l-1.12.4-.55-.93-6.74,2.38.16,1.06-1.13.4-1.37-3.88,1.13-.4.55.93L42,318.65l-1.34-3.82L34,317.16l.16,1.07-1.13.4-1.37-3.89,1.13-.4.55.93L40,312.94l-.47-1.32,3.73-1.24Z" transform="translate(90 0)"/><path class="cls-3" d="M63.37,357.51l-1,.61-.58-.67-4.5-.62L55.45,361l.26.78-1,.61-2-3.35,1-.61.56.77,1.2-2.68-2.93-.27.39.85-1,.61L50,354.36l1-.61.6.68,4.28.44,1.78-4.36-.33-.9,1-.61,2,3.44-1,.61-.51-.7-1.25,2.87,3.14.35-.35-.76,1-.6Z" transform="translate(90 0)"/><path class="cls-3" d="M87.45,387.23l-.84.73-.85-.66-.45.39.08.08a5.06,5.06,0,0,1,1.08,1.91,3.52,3.52,0,0,1,0,1.93,3.4,3.4,0,0,1-1.08,1.65,3.54,3.54,0,0,1-1.82.89,3.63,3.63,0,0,1-1.94-.24,4.91,4.91,0,0,1-1.77-1.31l-.07-.08-.45.39.55.94-.83.73-2.72-3.1.83-.73.86.67.45-.4-.06-.06A4.86,4.86,0,0,1,77.38,389a3.62,3.62,0,0,1,0-2,3.5,3.5,0,0,1,1.11-1.68,3.34,3.34,0,0,1,1.78-.86,3.58,3.58,0,0,1,1.92.27A5.16,5.16,0,0,1,84,386.13l0,.06.44-.39-.55-.93.83-.73ZM83,387.1l-.06-.07a2.57,2.57,0,0,0-1-.7,1.81,1.81,0,0,0-1.08-.06,2.38,2.38,0,0,0-1.09.6,2.64,2.64,0,0,0-.78,1,1.77,1.77,0,0,0-.08,1.09,2.27,2.27,0,0,0,.56,1l.07.07Zm1.38,1.58-.07-.09-3.42,3,.08.08a2.29,2.29,0,0,0,1,.7,1.92,1.92,0,0,0,1.09.05,2.86,2.86,0,0,0,1.13-.63,2.5,2.5,0,0,0,.73-1,1.86,1.86,0,0,0,.07-1.07A2.42,2.42,0,0,0,84.35,388.68Z" transform="translate(90 0)"/><path class="cls-3" d="M117.79,414.88l.3.25c.11.09.19.17.25.21l-.93,1.22a1.79,1.79,0,0,0-.19-.18,1.66,1.66,0,0,0-.22-.17,1.16,1.16,0,0,0-.79-.31,1.7,1.7,0,0,0-.8.29l-.35.21-1.33,6.4.75.76-.74.95-3.09-2.39.73-.95.66.36.77-3.23.19-.63,0,0-3.29,2,.47.53-.74,1-3-2.28.74-.95.85.49,6.36-3.59a5.33,5.33,0,0,1,1.18-.48,2.24,2.24,0,0,1,1.09,0A2.77,2.77,0,0,1,117.79,414.88Z" transform="translate(90 0)"/><path class="cls-3" d="M153.43,436.16l-.54,1.06-1-.29-3.16,6.26,1.61.81.64-1,1.35.68-1.23,2.44-7.93-4,1.23-2.43,1.35.68-.44,1.11,1.63.83,3.17-6.26-.87-.67.54-1.07Z" transform="translate(90 0)"/><path class="cls-3" d="M189.84,449.13a5.18,5.18,0,0,1,2.27,1.27,4.21,4.21,0,0,1,1.12,2.11,5.64,5.64,0,0,1-.15,2.68l-.1.33a5.47,5.47,0,0,1-1.24,2.31,4.19,4.19,0,0,1-2,1.25,4.67,4.67,0,0,1-2.56-.07,6.2,6.2,0,0,1-1.75-.79,4.59,4.59,0,0,1-1.28-1.28l.65-2.31,1.43.4-.21,1.51a2.5,2.5,0,0,0,.39.41,2.6,2.6,0,0,0,.51.32,3.6,3.6,0,0,0,.63.25,2.5,2.5,0,0,0,1.51,0,2.54,2.54,0,0,0,1.22-.88,4.39,4.39,0,0,0,.81-1.65l.1-.33a4.42,4.42,0,0,0,.16-1.84,2.67,2.67,0,0,0-.61-1.4,2.48,2.48,0,0,0-1.32-.81,4,4,0,0,0-.86-.15,4.33,4.33,0,0,0-.82,0l-.58,1.29-1.43-.41.65-2.29a5.5,5.5,0,0,1,1.57-.22A6.68,6.68,0,0,1,189.84,449.13Z" transform="translate(90 0)"/><path class="cls-3" d="M235.18,456.38l-.11,1.19-1.07.12-.61,7.11,1,.3-.11,1.2-1-.09-3.67-.32a4.42,4.42,0,0,1-1.92-.56,2.94,2.94,0,0,1-1.47-2.92,3.1,3.1,0,0,1,.58-1.62,2.92,2.92,0,0,1,1.36-1,4.55,4.55,0,0,1,2-.23l1.67.15.19-2.2-1-.3.1-1.19Zm-3.49,4.87-1.67-.14a1.51,1.51,0,0,0-1.82,1.46,1.54,1.54,0,0,0,1.54,1.79l1.67.14Z" transform="translate(90 0)"/><path class="cls-3" d="M277.25,454.35l.13,1.19-1,.32.75,7.1,1.08.1.13,1.19-10.12,1.07-.13-1.19,1-.32-.76-7.1-1.07-.1-.13-1.19,4.1-.43.12,1.19-1,.32.74,7,4-.43-.74-7-1.08-.09-.13-1.19Z" transform="translate(90 0)"/><path class="cls-3" d="M312.45,445.68a4.43,4.43,0,0,1,1.86-.17,4,4,0,0,1,1.67.59,4.88,4.88,0,0,1,1.35,1.26,6.23,6.23,0,0,1,.89,1.83l0,.15a5.94,5.94,0,0,1,.27,2,4.84,4.84,0,0,1-.4,1.8,4.24,4.24,0,0,1-1.05,1.43,4.38,4.38,0,0,1-1.65.89,4.33,4.33,0,0,1-1.87.18,4,4,0,0,1-1.68-.59,4.92,4.92,0,0,1-1.36-1.26,6.11,6.11,0,0,1-.89-1.83l-.05-.14a6,6,0,0,1-.27-2,4.65,4.65,0,0,1,.41-1.8,4.41,4.41,0,0,1,1.06-1.43A4.51,4.51,0,0,1,312.45,445.68Zm.45,1.49a2.18,2.18,0,0,0-1.22.83,2.65,2.65,0,0,0-.45,1.41,5.23,5.23,0,0,0,.27,1.84l0,.15a5.25,5.25,0,0,0,.81,1.66,2.54,2.54,0,0,0,1.17.91,2.17,2.17,0,0,0,1.47,0,2.15,2.15,0,0,0,1.2-.82,2.61,2.61,0,0,0,.44-1.4,5.72,5.72,0,0,0-.27-1.83l-.05-.15a5.3,5.3,0,0,0-.8-1.67,2.59,2.59,0,0,0-1.15-.93A2.15,2.15,0,0,0,312.9,447.17Z" transform="translate(90 0)"/><path class="cls-3" d="M354.84,426.94l.56,1.06-.84.67,3.35,6.32,1-.32.56,1.06-3.64,1.93-.56-1.06.84-.68-1.34-2.54-3.59,1.9,1.34,2.54,1-.32.57,1.07-1,.5-1.75.93-.95.5-.56-1.07.85-.68-3.35-6.31-1,.32-.56-1.06,3.65-1.93.56,1.06-.85.68,1.28,2.42,3.59-1.91-1.28-2.41-1,.32-.56-1.06Z" transform="translate(90 0)"/><path class="cls-3" d="M389.49,401.78l.75.93-.7.83L394,409.1l1-.51.75.94-.82.66-2.3,1.86-6.47-3.7,0,0,2.31,7.05L385.29,418l-.75-.94.7-.83-4.48-5.56-1,.51-.75-.93,3.21-2.59.75.93-.74.86,1.19,1.48,2.8,3.52,0,0-2.5-7.84,1.18-.94,7.14,4,0,0-2.74-3.22-1.33-1.64-1,.58-.75-.93Z" transform="translate(90 0)"/><path class="cls-3" d="M416.44,372.78l1.16,1-.17.2a1.61,1.61,0,0,0-.31.74,1.28,1.28,0,0,0,.18.78,4.32,4.32,0,0,0,.73.95c.34.36.79.77,1.35,1.26l2.36,2,.84-.67.91.78-5.74,6.79-.91-.78.53-.94-5.46-4.61-.84.68-.92-.77,2.66-3.15.92.77-.53,1,5.35,4.52,1.81-2.14-2.27-1.95a13.71,13.71,0,0,1-1.75-1.77,5,5,0,0,1-.88-1.56,2.44,2.44,0,0,1-.06-1.41,3.2,3.2,0,0,1,.72-1.32Z" transform="translate(90 0)"/><path class="cls-3" d="M438.34,338.14l1,.58-.34,1,6.24,3.49.69-.83,1,.59-2,3.55-1-.59.32-1-2.32-1.3-.44.78L443,347.4a4.17,4.17,0,0,1,.47,1.53,1.93,1.93,0,0,1-.27,1.14,2,2,0,0,1-.42.55,1.88,1.88,0,0,1-.49.36l-1.14-1,.18-.2a.86.86,0,0,0,.13-.2,1,1,0,0,0,.13-.59,2.88,2.88,0,0,0-.26-.9l-1.09-2.4-4.79.48-.66.83-1.05-.59,1.93-3.44,1.05.59-.21.53h0l3.33-.26.57-1-2.33-1.3-.68.78-1-.58Z" transform="translate(90 0)"/><path class="cls-3" d="M461,258.77l1.19.15.07,1.08,7.08.92.34-1,1.2.15-.14,1.06-.26,2-.13,1.06-1.2-.15-.06-1.09-4.57-.59,0,0,3.52,4.5.55.07.34-1,1.19.15-.14,1-.25,2-.14,1.05-1.19-.15-.07-1.08-7.08-.92-.34,1-1.19-.16.53-4.08,1.18.15.07,1.08,4.46.57,0,0-3.52-4.5-.44,0-.34,1-1.18-.16Z" transform="translate(90 0)"/><path class="cls-3" d="M460.78,222.36a5.07,5.07,0,0,1,.21-1.85,3.2,3.2,0,0,1,.88-1.4,2.37,2.37,0,0,1,1.54-.57h0l.12,1.93a1.22,1.22,0,0,0-.68.26,1.47,1.47,0,0,0-.46.62,2.29,2.29,0,0,0-.12.93,1.94,1.94,0,0,0,.49,1.27A1.38,1.38,0,0,0,464,224a1.29,1.29,0,0,0,1-.49,2,2,0,0,0,.29-1.31l-.08-1.21,1.5-.09.07,1.21a1.72,1.72,0,0,0,.43,1.15,1.39,1.39,0,0,0,2-.19,2.09,2.09,0,0,0,.3-1.36,3.06,3.06,0,0,0-.24-1,2.07,2.07,0,0,0-.51-.69l-1.25-.13-.09-1.48,1.88-.11a4.1,4.1,0,0,1,1.2,1.44,5,5,0,0,1,.55,2.06,4.37,4.37,0,0,1-.55,2.69,2.49,2.49,0,0,1-3.32.78,2.59,2.59,0,0,1-1-1.07,2.54,2.54,0,0,1-.81,1.31,2.33,2.33,0,0,1-1.41.53,2.55,2.55,0,0,1-1.59-.38,3.16,3.16,0,0,1-1.1-1.28A5.33,5.33,0,0,1,460.78,222.36Z" transform="translate(90 0)"/><path class="cls-3" d="M453.51,299.35l1.13.37-.14,1.08,6.78,2.24.53-.94,1.15.38-.34,1-.62,1.89-.34,1-1.14-.38.14-1.08-4.37-1.44,0,0,2.6,5.09.53.17.52-.94,1.15.38-.34,1-.63,1.91-.33,1-1.14-.38.14-1.07L452,308.44l-.52.94-1.14-.38,1.3-3.91,1.13.38-.14,1.07,4.27,1.41,0,0-2.61-5.09-.41-.14-.53.95-1.14-.38Zm8.42,8.15A2.61,2.61,0,0,1,463,306a1.75,1.75,0,0,1,1.56-.14l0,0-.42,1.28a.93.93,0,0,0-.7,0,1,1,0,0,0-.49.64,1,1,0,0,0,0,.79.92.92,0,0,0,.55.44l-.43,1.3h0a1.77,1.77,0,0,1-1.16-1.05A2.56,2.56,0,0,1,461.93,307.5Z" transform="translate(90 0)"/><path class="cls-3" d="M451.84,175l1.16-.3.39.92,4.53,1.27,1.65-1.73a3,3,0,0,0,.5-.74,1,1,0,0,0-.05-.79l-.12-.23,1.38-.66a2.06,2.06,0,0,1,.38.48,2.48,2.48,0,0,1,.28.68,2.14,2.14,0,0,1,.06.82,1.7,1.7,0,0,1-.28.73,5.57,5.57,0,0,1-.69.83l-2.22,2.17.26,1,2.58-.66-.07-1.09,1.16-.3,1,4-1.17.3-.46-1-2.58.67.27,1,3,.79a3.56,3.56,0,0,1,1.35.6,2,2,0,0,1,.6,1,2.71,2.71,0,0,1,.09.71,2.36,2.36,0,0,1-.11.61l-1.52.1a2.18,2.18,0,0,0,0-.25.77.77,0,0,0,0-.25,1,1,0,0,0-.3-.48,1.92,1.92,0,0,0-.79-.39l-2.31-.7-3.34,3.25.12,1-1.15.3-1-3.69,1.16-.3.17.37,0,0,2.32-2.11-.3-1.19-2.59.67.07,1.09-1.16.3-1-4,1.15-.3.47,1,2.59-.67-.31-1.2L454,178h0l0,.39-1.16.3Z" transform="translate(90 0)"/><path class="cls-3" d="M437,139.72l1.08-.51.64.87,6.45-3.08-.28-1,1.09-.52,3.32,7-2.42,1.15-.66-1.38,1-.57-1.31-2.76-2.26,1.08,1.45,3-1.39.66-1.45-3-2.57,1.22,1.38,2.9,1.11-.43.66,1.37-2.46,1.17Zm10.51-3.25,1.53-.73.83,1.73-1.54.74Zm1.32,2.79,1.54-.74.83,1.74-1.54.73Z" transform="translate(90 0)"/><path class="cls-3" d="M414.51,105.16l1-.72.8.74,5.75-4.24-.47-1,1-.71,4.59,6.21-2.16,1.6-.91-1.23.87-.76-1.81-2.45-2,1.48,2,2.72-1.23.91-2-2.71-2.29,1.69,1.9,2.58,1-.63.91,1.22-2.19,1.61Z" transform="translate(90 0)"/><path class="cls-3" d="M383.47,76.75l2.58-3,.57.52a3,3,0,0,0,1.05-.17,5.11,5.11,0,0,0,1.3-.68,12.06,12.06,0,0,0,1.62-1.4l2-1.85-.58-.79.81-.89,6.33,5.83-.82.88-.92-.56-4.75,5.15.87.8-2.84,2.8-1.33-1.23,1.66-1.8-4.49-4.13L384.82,78Zm4.81-1,2.86,2.63,4.67-5.06-1.91-1.76-1.84,1.76a14,14,0,0,1-1.36,1.2,8.23,8.23,0,0,1-1.25.79A5.65,5.65,0,0,1,388.28,75.78Z" transform="translate(90 0)"/><path class="cls-3" d="M352.27,52l.63-1,1,.38,3.75-6.08-.79-.73.63-1,6.42,4-1.32,2.15-1.31-.81.45-.88-2.45-1.51-3.68,6,.8.73-.63,1Z" transform="translate(90 0)"/><path class="cls-3" d="M314,35l.43-1.12,1.06.19,2.53-6.68-.91-.57.42-1.13,1,.38,3.15,1.19A4.79,4.79,0,0,1,324,28.86a2.33,2.33,0,0,1,.2,2.26,2.31,2.31,0,0,1-.78,1,2.21,2.21,0,0,1-1.29.38,2.31,2.31,0,0,1,.77.79,2,2,0,0,1,.28,1,2.7,2.7,0,0,1-.18,1A2.6,2.6,0,0,1,321.38,37a4.36,4.36,0,0,1-2.76-.26Zm3.41-.35,1.71.65a1.84,1.84,0,0,0,1.26.11,1.27,1.27,0,0,0,.75-.81,1.86,1.86,0,0,0,.15-.83,1.08,1.08,0,0,0-.27-.64,1.91,1.91,0,0,0-.73-.46l-1.86-.7Zm1.5-4,1.34.5a2,2,0,0,0,1.27.13,1.1,1.1,0,0,0,.74-.74,1.17,1.17,0,0,0,0-1.1,2.09,2.09,0,0,0-1.1-.77l-1.27-.48Z" transform="translate(90 0)"/><path class="cls-3" d="M273.86,25.71l.21-1.18,1.07,0,1.22-7-1-.38.21-1.19L283,17.19l-.43,2.48-1.51-.26.08-1-2.8-.49L278,20.06l1.68.29a4.72,4.72,0,0,1,1.9.72,2.84,2.84,0,0,1,1.26,3,3,3,0,0,1-.74,1.56,3,3,0,0,1-1.47.87,4.51,4.51,0,0,1-2,.06Zm3.3-1,1.68.3a1.73,1.73,0,0,0,1.36-.25,1.64,1.64,0,0,0,.65-1.09,1.48,1.48,0,0,0-.25-1.17,1.85,1.85,0,0,0-1.21-.65l-1.68-.29Z" transform="translate(90 0)"/><line class="cls-4" x1="331.1" y1="33.65" x2="331.1" y2="51.41"/></svg>